<mxfile host="app.diagrams.net" modified="2024-04-24T02:40:02.383Z" agent="Mozilla/5.0 (Windows NT 10.0; Win64; x64) AppleWebKit/537.36 (KHTML, like Gecko) Chrome/123.0.0.0 Safari/537.36" etag="CfJyzD1OoDXKHKWQ1kG3" version="24.2.8" type="github">
  <diagram id="C5RBs43oDa-KdzZeNtuy" name="Page-1">
    <mxGraphModel dx="2033" dy="1695" grid="1" gridSize="10" guides="1" tooltips="1" connect="1" arrows="1" fold="1" page="1" pageScale="1" pageWidth="827" pageHeight="1169" math="0" shadow="0">
      <root>
        <mxCell id="WIyWlLk6GJQsqaUBKTNV-0" />
        <mxCell id="WIyWlLk6GJQsqaUBKTNV-1" parent="WIyWlLk6GJQsqaUBKTNV-0" />
        <mxCell id="HxlN1PRi2jvmmC1PD4Mm-4" style="edgeStyle=orthogonalEdgeStyle;rounded=0;orthogonalLoop=1;jettySize=auto;html=1;exitX=0.5;exitY=1;exitDx=0;exitDy=0;entryX=0.5;entryY=0;entryDx=0;entryDy=0;" edge="1" parent="WIyWlLk6GJQsqaUBKTNV-1" source="WIyWlLk6GJQsqaUBKTNV-3" target="HxlN1PRi2jvmmC1PD4Mm-0">
          <mxGeometry relative="1" as="geometry" />
        </mxCell>
        <mxCell id="HxlN1PRi2jvmmC1PD4Mm-5" style="edgeStyle=orthogonalEdgeStyle;rounded=0;orthogonalLoop=1;jettySize=auto;html=1;entryX=0.5;entryY=0;entryDx=0;entryDy=0;" edge="1" parent="WIyWlLk6GJQsqaUBKTNV-1" source="WIyWlLk6GJQsqaUBKTNV-3" target="HxlN1PRi2jvmmC1PD4Mm-1">
          <mxGeometry relative="1" as="geometry" />
        </mxCell>
        <mxCell id="WIyWlLk6GJQsqaUBKTNV-3" value="云柜员登录" style="rounded=1;whiteSpace=wrap;html=1;fontSize=12;glass=0;strokeWidth=1;shadow=0;" parent="WIyWlLk6GJQsqaUBKTNV-1" vertex="1">
          <mxGeometry x="-190" y="-210" width="120" height="40" as="geometry" />
        </mxCell>
        <mxCell id="HxlN1PRi2jvmmC1PD4Mm-6" style="edgeStyle=orthogonalEdgeStyle;rounded=0;orthogonalLoop=1;jettySize=auto;html=1;exitX=0.5;exitY=1;exitDx=0;exitDy=0;entryX=0.5;entryY=0;entryDx=0;entryDy=0;" edge="1" parent="WIyWlLk6GJQsqaUBKTNV-1" source="HxlN1PRi2jvmmC1PD4Mm-0" target="HxlN1PRi2jvmmC1PD4Mm-2">
          <mxGeometry relative="1" as="geometry" />
        </mxCell>
        <mxCell id="HxlN1PRi2jvmmC1PD4Mm-0" value="PC云柜员登录" style="rounded=1;whiteSpace=wrap;html=1;fontSize=12;glass=0;strokeWidth=1;shadow=0;" vertex="1" parent="WIyWlLk6GJQsqaUBKTNV-1">
          <mxGeometry x="-270" y="-70" width="120" height="40" as="geometry" />
        </mxCell>
        <mxCell id="HxlN1PRi2jvmmC1PD4Mm-7" style="edgeStyle=orthogonalEdgeStyle;rounded=0;orthogonalLoop=1;jettySize=auto;html=1;exitX=0.5;exitY=1;exitDx=0;exitDy=0;entryX=0.5;entryY=0;entryDx=0;entryDy=0;" edge="1" parent="WIyWlLk6GJQsqaUBKTNV-1" source="HxlN1PRi2jvmmC1PD4Mm-1" target="HxlN1PRi2jvmmC1PD4Mm-3">
          <mxGeometry relative="1" as="geometry" />
        </mxCell>
        <mxCell id="HxlN1PRi2jvmmC1PD4Mm-1" value="PAD云柜员登录" style="rounded=1;whiteSpace=wrap;html=1;fontSize=12;glass=0;strokeWidth=1;shadow=0;" vertex="1" parent="WIyWlLk6GJQsqaUBKTNV-1">
          <mxGeometry x="-110" y="-70" width="120" height="40" as="geometry" />
        </mxCell>
        <mxCell id="HxlN1PRi2jvmmC1PD4Mm-2" value="签入" style="rounded=1;whiteSpace=wrap;html=1;fontSize=12;glass=0;strokeWidth=1;shadow=0;" vertex="1" parent="WIyWlLk6GJQsqaUBKTNV-1">
          <mxGeometry x="-270" y="10" width="120" height="40" as="geometry" />
        </mxCell>
        <mxCell id="HxlN1PRi2jvmmC1PD4Mm-3" value="默认签入（可手动切换签入状态）" style="rounded=1;whiteSpace=wrap;html=1;fontSize=12;glass=0;strokeWidth=1;shadow=0;" vertex="1" parent="WIyWlLk6GJQsqaUBKTNV-1">
          <mxGeometry x="-110" y="10" width="120" height="40" as="geometry" />
        </mxCell>
        <mxCell id="HxlN1PRi2jvmmC1PD4Mm-8" style="edgeStyle=orthogonalEdgeStyle;rounded=0;orthogonalLoop=1;jettySize=auto;html=1;exitX=0.5;exitY=1;exitDx=0;exitDy=0;entryX=0.5;entryY=0;entryDx=0;entryDy=0;" edge="1" parent="WIyWlLk6GJQsqaUBKTNV-1" source="HxlN1PRi2jvmmC1PD4Mm-10" target="HxlN1PRi2jvmmC1PD4Mm-12">
          <mxGeometry relative="1" as="geometry" />
        </mxCell>
        <mxCell id="HxlN1PRi2jvmmC1PD4Mm-35" style="edgeStyle=orthogonalEdgeStyle;rounded=0;orthogonalLoop=1;jettySize=auto;html=1;exitX=0.5;exitY=1;exitDx=0;exitDy=0;entryX=0.5;entryY=0;entryDx=0;entryDy=0;" edge="1" parent="WIyWlLk6GJQsqaUBKTNV-1">
          <mxGeometry relative="1" as="geometry">
            <mxPoint x="500" y="-165" as="sourcePoint" />
            <mxPoint x="758" y="-75" as="targetPoint" />
            <Array as="points">
              <mxPoint x="500" y="-115" />
              <mxPoint x="758" y="-115" />
            </Array>
          </mxGeometry>
        </mxCell>
        <mxCell id="HxlN1PRi2jvmmC1PD4Mm-42" style="edgeStyle=orthogonalEdgeStyle;rounded=0;orthogonalLoop=1;jettySize=auto;html=1;exitX=0.5;exitY=1;exitDx=0;exitDy=0;entryX=0.25;entryY=0;entryDx=0;entryDy=0;" edge="1" parent="WIyWlLk6GJQsqaUBKTNV-1" source="HxlN1PRi2jvmmC1PD4Mm-10" target="HxlN1PRi2jvmmC1PD4Mm-14">
          <mxGeometry relative="1" as="geometry">
            <Array as="points">
              <mxPoint x="500" y="-120" />
              <mxPoint x="500" y="-120" />
            </Array>
          </mxGeometry>
        </mxCell>
        <mxCell id="HxlN1PRi2jvmmC1PD4Mm-10" value="客户呼入" style="rounded=1;whiteSpace=wrap;html=1;fontSize=12;glass=0;strokeWidth=1;shadow=0;" vertex="1" parent="WIyWlLk6GJQsqaUBKTNV-1">
          <mxGeometry x="440" y="-200" width="120" height="40" as="geometry" />
        </mxCell>
        <mxCell id="HxlN1PRi2jvmmC1PD4Mm-11" style="edgeStyle=orthogonalEdgeStyle;rounded=0;orthogonalLoop=1;jettySize=auto;html=1;exitX=0.5;exitY=1;exitDx=0;exitDy=0;entryX=0.5;entryY=0;entryDx=0;entryDy=0;" edge="1" parent="WIyWlLk6GJQsqaUBKTNV-1" source="HxlN1PRi2jvmmC1PD4Mm-12" target="HxlN1PRi2jvmmC1PD4Mm-15">
          <mxGeometry relative="1" as="geometry" />
        </mxCell>
        <mxCell id="HxlN1PRi2jvmmC1PD4Mm-12" value="手机银行呼入" style="rounded=1;whiteSpace=wrap;html=1;fontSize=12;glass=0;strokeWidth=1;shadow=0;" vertex="1" parent="WIyWlLk6GJQsqaUBKTNV-1">
          <mxGeometry x="250" y="-70" width="120" height="40" as="geometry" />
        </mxCell>
        <mxCell id="HxlN1PRi2jvmmC1PD4Mm-13" style="edgeStyle=orthogonalEdgeStyle;rounded=0;orthogonalLoop=1;jettySize=auto;html=1;exitX=0.5;exitY=1;exitDx=0;exitDy=0;entryX=0.5;entryY=0;entryDx=0;entryDy=0;" edge="1" parent="WIyWlLk6GJQsqaUBKTNV-1" source="HxlN1PRi2jvmmC1PD4Mm-14" target="HxlN1PRi2jvmmC1PD4Mm-16">
          <mxGeometry relative="1" as="geometry" />
        </mxCell>
        <mxCell id="HxlN1PRi2jvmmC1PD4Mm-26" style="edgeStyle=orthogonalEdgeStyle;rounded=0;orthogonalLoop=1;jettySize=auto;html=1;exitX=0.5;exitY=1;exitDx=0;exitDy=0;" edge="1" parent="WIyWlLk6GJQsqaUBKTNV-1">
          <mxGeometry relative="1" as="geometry">
            <mxPoint x="610" y="29" as="targetPoint" />
            <mxPoint x="530" y="-21" as="sourcePoint" />
            <Array as="points">
              <mxPoint x="530" y="-11" />
              <mxPoint x="610" y="-11" />
            </Array>
          </mxGeometry>
        </mxCell>
        <mxCell id="HxlN1PRi2jvmmC1PD4Mm-14" value="智能低柜 / 高柜呼入" style="rounded=1;whiteSpace=wrap;html=1;fontSize=12;glass=0;strokeWidth=1;shadow=0;" vertex="1" parent="WIyWlLk6GJQsqaUBKTNV-1">
          <mxGeometry x="470" y="-70" width="120" height="40" as="geometry" />
        </mxCell>
        <mxCell id="HxlN1PRi2jvmmC1PD4Mm-18" value="" style="edgeStyle=orthogonalEdgeStyle;rounded=0;orthogonalLoop=1;jettySize=auto;html=1;" edge="1" parent="WIyWlLk6GJQsqaUBKTNV-1" source="HxlN1PRi2jvmmC1PD4Mm-15" target="HxlN1PRi2jvmmC1PD4Mm-17">
          <mxGeometry relative="1" as="geometry" />
        </mxCell>
        <mxCell id="HxlN1PRi2jvmmC1PD4Mm-15" value="选择云柜员" style="rounded=1;whiteSpace=wrap;html=1;fontSize=12;glass=0;strokeWidth=1;shadow=0;" vertex="1" parent="WIyWlLk6GJQsqaUBKTNV-1">
          <mxGeometry x="250" y="10" width="120" height="40" as="geometry" />
        </mxCell>
        <mxCell id="HxlN1PRi2jvmmC1PD4Mm-22" value="" style="edgeStyle=orthogonalEdgeStyle;rounded=0;orthogonalLoop=1;jettySize=auto;html=1;" edge="1" parent="WIyWlLk6GJQsqaUBKTNV-1" source="HxlN1PRi2jvmmC1PD4Mm-16" target="HxlN1PRi2jvmmC1PD4Mm-21">
          <mxGeometry relative="1" as="geometry" />
        </mxCell>
        <mxCell id="HxlN1PRi2jvmmC1PD4Mm-16" value="系统识别到客户人脸" style="rounded=1;whiteSpace=wrap;html=1;fontSize=12;glass=0;strokeWidth=1;shadow=0;" vertex="1" parent="WIyWlLk6GJQsqaUBKTNV-1">
          <mxGeometry x="410" y="10" width="120" height="40" as="geometry" />
        </mxCell>
        <mxCell id="HxlN1PRi2jvmmC1PD4Mm-20" value="" style="edgeStyle=orthogonalEdgeStyle;rounded=0;orthogonalLoop=1;jettySize=auto;html=1;" edge="1" parent="WIyWlLk6GJQsqaUBKTNV-1" source="HxlN1PRi2jvmmC1PD4Mm-17" target="HxlN1PRi2jvmmC1PD4Mm-19">
          <mxGeometry relative="1" as="geometry">
            <Array as="points">
              <mxPoint x="310" y="330" />
              <mxPoint x="660" y="330" />
            </Array>
          </mxGeometry>
        </mxCell>
        <mxCell id="HxlN1PRi2jvmmC1PD4Mm-17" value="条款确认" style="whiteSpace=wrap;html=1;rounded=1;glass=0;strokeWidth=1;shadow=0;" vertex="1" parent="WIyWlLk6GJQsqaUBKTNV-1">
          <mxGeometry x="250" y="120" width="120" height="60" as="geometry" />
        </mxCell>
        <mxCell id="HxlN1PRi2jvmmC1PD4Mm-19" value="等待坐席进线" style="whiteSpace=wrap;html=1;rounded=1;glass=0;strokeWidth=1;shadow=0;" vertex="1" parent="WIyWlLk6GJQsqaUBKTNV-1">
          <mxGeometry x="600" y="400" width="120" height="60" as="geometry" />
        </mxCell>
        <mxCell id="HxlN1PRi2jvmmC1PD4Mm-29" style="edgeStyle=orthogonalEdgeStyle;rounded=0;orthogonalLoop=1;jettySize=auto;html=1;entryX=0.5;entryY=0;entryDx=0;entryDy=0;" edge="1" parent="WIyWlLk6GJQsqaUBKTNV-1" source="HxlN1PRi2jvmmC1PD4Mm-21" target="HxlN1PRi2jvmmC1PD4Mm-19">
          <mxGeometry relative="1" as="geometry" />
        </mxCell>
        <mxCell id="HxlN1PRi2jvmmC1PD4Mm-21" value="呼叫远程柜员" style="whiteSpace=wrap;html=1;rounded=1;glass=0;strokeWidth=1;shadow=0;" vertex="1" parent="WIyWlLk6GJQsqaUBKTNV-1">
          <mxGeometry x="520" y="170" width="120" height="60" as="geometry" />
        </mxCell>
        <mxCell id="HxlN1PRi2jvmmC1PD4Mm-28" style="edgeStyle=orthogonalEdgeStyle;rounded=0;orthogonalLoop=1;jettySize=auto;html=1;exitX=0.5;exitY=1;exitDx=0;exitDy=0;entryX=0.5;entryY=0;entryDx=0;entryDy=0;" edge="1" parent="WIyWlLk6GJQsqaUBKTNV-1" source="HxlN1PRi2jvmmC1PD4Mm-27" target="HxlN1PRi2jvmmC1PD4Mm-21">
          <mxGeometry relative="1" as="geometry" />
        </mxCell>
        <mxCell id="HxlN1PRi2jvmmC1PD4Mm-27" value="客户点击操作屏幕任意位置" style="rounded=1;whiteSpace=wrap;html=1;fontSize=12;glass=0;strokeWidth=1;shadow=0;" vertex="1" parent="WIyWlLk6GJQsqaUBKTNV-1">
          <mxGeometry x="550" y="10" width="120" height="40" as="geometry" />
        </mxCell>
        <mxCell id="HxlN1PRi2jvmmC1PD4Mm-32" style="edgeStyle=orthogonalEdgeStyle;rounded=0;orthogonalLoop=1;jettySize=auto;html=1;exitX=0.5;exitY=1;exitDx=0;exitDy=0;" edge="1" parent="WIyWlLk6GJQsqaUBKTNV-1" source="HxlN1PRi2jvmmC1PD4Mm-31">
          <mxGeometry relative="1" as="geometry">
            <mxPoint x="758" y="30" as="targetPoint" />
          </mxGeometry>
        </mxCell>
        <mxCell id="HxlN1PRi2jvmmC1PD4Mm-36" style="edgeStyle=orthogonalEdgeStyle;rounded=0;orthogonalLoop=1;jettySize=auto;html=1;exitX=0.5;exitY=1;exitDx=0;exitDy=0;" edge="1" parent="WIyWlLk6GJQsqaUBKTNV-1" source="HxlN1PRi2jvmmC1PD4Mm-31">
          <mxGeometry relative="1" as="geometry">
            <mxPoint x="950" y="30" as="targetPoint" />
          </mxGeometry>
        </mxCell>
        <mxCell id="HxlN1PRi2jvmmC1PD4Mm-31" value="迷你器具呼入" style="rounded=1;whiteSpace=wrap;html=1;fontSize=12;glass=0;strokeWidth=1;shadow=0;" vertex="1" parent="WIyWlLk6GJQsqaUBKTNV-1">
          <mxGeometry x="698" y="-70" width="120" height="40" as="geometry" />
        </mxCell>
        <mxCell id="HxlN1PRi2jvmmC1PD4Mm-39" style="edgeStyle=orthogonalEdgeStyle;rounded=0;orthogonalLoop=1;jettySize=auto;html=1;exitX=0.5;exitY=1;exitDx=0;exitDy=0;" edge="1" parent="WIyWlLk6GJQsqaUBKTNV-1" source="HxlN1PRi2jvmmC1PD4Mm-33" target="HxlN1PRi2jvmmC1PD4Mm-19">
          <mxGeometry relative="1" as="geometry" />
        </mxCell>
        <mxCell id="HxlN1PRi2jvmmC1PD4Mm-33" value="视频办理" style="whiteSpace=wrap;html=1;rounded=1;glass=0;strokeWidth=1;shadow=0;" vertex="1" parent="WIyWlLk6GJQsqaUBKTNV-1">
          <mxGeometry x="698" y="30" width="120" height="60" as="geometry" />
        </mxCell>
        <mxCell id="HxlN1PRi2jvmmC1PD4Mm-37" value="本地双录" style="whiteSpace=wrap;html=1;rounded=1;glass=0;strokeWidth=1;shadow=0;" vertex="1" parent="WIyWlLk6GJQsqaUBKTNV-1">
          <mxGeometry x="890" y="30" width="120" height="60" as="geometry" />
        </mxCell>
        <mxCell id="HxlN1PRi2jvmmC1PD4Mm-48" style="edgeStyle=orthogonalEdgeStyle;rounded=0;orthogonalLoop=1;jettySize=auto;html=1;exitX=0.5;exitY=1;exitDx=0;exitDy=0;" edge="1" parent="WIyWlLk6GJQsqaUBKTNV-1" source="HxlN1PRi2jvmmC1PD4Mm-43" target="HxlN1PRi2jvmmC1PD4Mm-44">
          <mxGeometry relative="1" as="geometry" />
        </mxCell>
        <mxCell id="HxlN1PRi2jvmmC1PD4Mm-51" style="edgeStyle=orthogonalEdgeStyle;rounded=0;orthogonalLoop=1;jettySize=auto;html=1;exitX=0.5;exitY=1;exitDx=0;exitDy=0;entryX=0.5;entryY=0;entryDx=0;entryDy=0;" edge="1" parent="WIyWlLk6GJQsqaUBKTNV-1" source="HxlN1PRi2jvmmC1PD4Mm-43" target="HxlN1PRi2jvmmC1PD4Mm-49">
          <mxGeometry relative="1" as="geometry" />
        </mxCell>
        <mxCell id="HxlN1PRi2jvmmC1PD4Mm-82" value="" style="edgeStyle=orthogonalEdgeStyle;rounded=0;orthogonalLoop=1;jettySize=auto;html=1;" edge="1" parent="WIyWlLk6GJQsqaUBKTNV-1" source="HxlN1PRi2jvmmC1PD4Mm-43" target="HxlN1PRi2jvmmC1PD4Mm-81">
          <mxGeometry relative="1" as="geometry" />
        </mxCell>
        <mxCell id="HxlN1PRi2jvmmC1PD4Mm-43" value="云柜员接听" style="whiteSpace=wrap;html=1;rounded=1;glass=0;strokeWidth=1;shadow=0;" vertex="1" parent="WIyWlLk6GJQsqaUBKTNV-1">
          <mxGeometry x="-630" y="-210" width="120" height="60" as="geometry" />
        </mxCell>
        <mxCell id="HxlN1PRi2jvmmC1PD4Mm-53" value="" style="edgeStyle=orthogonalEdgeStyle;rounded=0;orthogonalLoop=1;jettySize=auto;html=1;" edge="1" parent="WIyWlLk6GJQsqaUBKTNV-1" source="HxlN1PRi2jvmmC1PD4Mm-44" target="HxlN1PRi2jvmmC1PD4Mm-52">
          <mxGeometry relative="1" as="geometry" />
        </mxCell>
        <mxCell id="HxlN1PRi2jvmmC1PD4Mm-44" value="PC" style="whiteSpace=wrap;html=1;rounded=1;glass=0;strokeWidth=1;shadow=0;" vertex="1" parent="WIyWlLk6GJQsqaUBKTNV-1">
          <mxGeometry x="-750" y="-10" width="120" height="60" as="geometry" />
        </mxCell>
        <mxCell id="HxlN1PRi2jvmmC1PD4Mm-49" value="PAD" style="whiteSpace=wrap;html=1;rounded=1;glass=0;strokeWidth=1;shadow=0;" vertex="1" parent="WIyWlLk6GJQsqaUBKTNV-1">
          <mxGeometry x="-510" y="-10" width="120" height="60" as="geometry" />
        </mxCell>
        <mxCell id="HxlN1PRi2jvmmC1PD4Mm-55" value="" style="edgeStyle=orthogonalEdgeStyle;rounded=0;orthogonalLoop=1;jettySize=auto;html=1;" edge="1" parent="WIyWlLk6GJQsqaUBKTNV-1" source="HxlN1PRi2jvmmC1PD4Mm-52" target="HxlN1PRi2jvmmC1PD4Mm-54">
          <mxGeometry relative="1" as="geometry" />
        </mxCell>
        <mxCell id="HxlN1PRi2jvmmC1PD4Mm-52" value="呼入振铃" style="whiteSpace=wrap;html=1;rounded=1;glass=0;strokeWidth=1;shadow=0;" vertex="1" parent="WIyWlLk6GJQsqaUBKTNV-1">
          <mxGeometry x="-750" y="130" width="120" height="60" as="geometry" />
        </mxCell>
        <mxCell id="HxlN1PRi2jvmmC1PD4Mm-57" value="" style="edgeStyle=orthogonalEdgeStyle;rounded=0;orthogonalLoop=1;jettySize=auto;html=1;entryX=0.5;entryY=0;entryDx=0;entryDy=0;" edge="1" parent="WIyWlLk6GJQsqaUBKTNV-1" source="HxlN1PRi2jvmmC1PD4Mm-54" target="HxlN1PRi2jvmmC1PD4Mm-69">
          <mxGeometry relative="1" as="geometry">
            <mxPoint x="-690" y="430" as="targetPoint" />
          </mxGeometry>
        </mxCell>
        <mxCell id="HxlN1PRi2jvmmC1PD4Mm-60" value="是" style="edgeLabel;html=1;align=center;verticalAlign=middle;resizable=0;points=[];" vertex="1" connectable="0" parent="HxlN1PRi2jvmmC1PD4Mm-57">
          <mxGeometry x="-0.563" y="-3" relative="1" as="geometry">
            <mxPoint as="offset" />
          </mxGeometry>
        </mxCell>
        <mxCell id="HxlN1PRi2jvmmC1PD4Mm-59" value="" style="edgeStyle=orthogonalEdgeStyle;rounded=0;orthogonalLoop=1;jettySize=auto;html=1;" edge="1" parent="WIyWlLk6GJQsqaUBKTNV-1" source="HxlN1PRi2jvmmC1PD4Mm-54">
          <mxGeometry relative="1" as="geometry">
            <mxPoint x="-590" y="300" as="targetPoint" />
          </mxGeometry>
        </mxCell>
        <mxCell id="HxlN1PRi2jvmmC1PD4Mm-61" value="否" style="edgeLabel;html=1;align=center;verticalAlign=middle;resizable=0;points=[];" vertex="1" connectable="0" parent="HxlN1PRi2jvmmC1PD4Mm-59">
          <mxGeometry x="-0.1111" y="-6" relative="1" as="geometry">
            <mxPoint as="offset" />
          </mxGeometry>
        </mxCell>
        <mxCell id="HxlN1PRi2jvmmC1PD4Mm-54" value="是否接听？" style="rhombus;whiteSpace=wrap;html=1;rounded=1;glass=0;strokeWidth=1;shadow=0;" vertex="1" parent="WIyWlLk6GJQsqaUBKTNV-1">
          <mxGeometry x="-730" y="260" width="80" height="80" as="geometry" />
        </mxCell>
        <mxCell id="HxlN1PRi2jvmmC1PD4Mm-64" value="" style="edgeStyle=orthogonalEdgeStyle;rounded=0;orthogonalLoop=1;jettySize=auto;html=1;" edge="1" parent="WIyWlLk6GJQsqaUBKTNV-1" source="HxlN1PRi2jvmmC1PD4Mm-62" target="HxlN1PRi2jvmmC1PD4Mm-63">
          <mxGeometry relative="1" as="geometry" />
        </mxCell>
        <mxCell id="HxlN1PRi2jvmmC1PD4Mm-67" value="是" style="edgeLabel;html=1;align=center;verticalAlign=middle;resizable=0;points=[];" vertex="1" connectable="0" parent="HxlN1PRi2jvmmC1PD4Mm-64">
          <mxGeometry x="-0.1714" y="2" relative="1" as="geometry">
            <mxPoint as="offset" />
          </mxGeometry>
        </mxCell>
        <mxCell id="HxlN1PRi2jvmmC1PD4Mm-66" value="" style="edgeStyle=orthogonalEdgeStyle;rounded=0;orthogonalLoop=1;jettySize=auto;html=1;" edge="1" parent="WIyWlLk6GJQsqaUBKTNV-1" source="HxlN1PRi2jvmmC1PD4Mm-62" target="HxlN1PRi2jvmmC1PD4Mm-65">
          <mxGeometry relative="1" as="geometry" />
        </mxCell>
        <mxCell id="HxlN1PRi2jvmmC1PD4Mm-68" value="否" style="edgeLabel;html=1;align=center;verticalAlign=middle;resizable=0;points=[];" vertex="1" connectable="0" parent="HxlN1PRi2jvmmC1PD4Mm-66">
          <mxGeometry x="-0.4508" y="1" relative="1" as="geometry">
            <mxPoint as="offset" />
          </mxGeometry>
        </mxCell>
        <mxCell id="HxlN1PRi2jvmmC1PD4Mm-62" value="客户挂断？" style="rhombus;whiteSpace=wrap;html=1;rounded=1;glass=0;strokeWidth=1;shadow=0;" vertex="1" parent="WIyWlLk6GJQsqaUBKTNV-1">
          <mxGeometry x="-590" y="260" width="80" height="80" as="geometry" />
        </mxCell>
        <mxCell id="HxlN1PRi2jvmmC1PD4Mm-63" value="&lt;br&gt;&lt;p class=&quot;MsoCaption&quot;&gt;&lt;span style=&quot;font-family:宋体;mso-ascii-font-family:Cambria;&lt;br/&gt;mso-ascii-theme-font:major-latin;mso-fareast-theme-font:minor-fareast;&lt;br/&gt;mso-hansi-font-family:Cambria;mso-hansi-theme-font:major-latin;color:red&quot;&gt;云柜员还未接听，此时客户挂断，&lt;/span&gt;&lt;span style=&quot;color: red; font-family: 宋体; background-color: initial;&quot;&gt;&lt;font style=&quot;font-size: 12px;&quot;&gt;柜员接听会有报错，关闭报错继续等待呼入即可&lt;/font&gt;&lt;/span&gt;&lt;/p&gt;&lt;div&gt;&lt;br&gt;&lt;/div&gt;" style="whiteSpace=wrap;html=1;rounded=1;glass=0;strokeWidth=1;shadow=0;" vertex="1" parent="WIyWlLk6GJQsqaUBKTNV-1">
          <mxGeometry x="-450" y="270" width="120" height="60" as="geometry" />
        </mxCell>
        <mxCell id="HxlN1PRi2jvmmC1PD4Mm-65" value="" style="whiteSpace=wrap;html=1;rounded=1;glass=0;strokeWidth=1;shadow=0;" vertex="1" parent="WIyWlLk6GJQsqaUBKTNV-1">
          <mxGeometry x="-610" y="380" width="120" height="60" as="geometry" />
        </mxCell>
        <mxCell id="HxlN1PRi2jvmmC1PD4Mm-72" value="" style="edgeStyle=orthogonalEdgeStyle;rounded=0;orthogonalLoop=1;jettySize=auto;html=1;" edge="1" parent="WIyWlLk6GJQsqaUBKTNV-1" source="HxlN1PRi2jvmmC1PD4Mm-69" target="HxlN1PRi2jvmmC1PD4Mm-71">
          <mxGeometry relative="1" as="geometry" />
        </mxCell>
        <mxCell id="HxlN1PRi2jvmmC1PD4Mm-77" value="是" style="edgeLabel;html=1;align=center;verticalAlign=middle;resizable=0;points=[];" vertex="1" connectable="0" parent="HxlN1PRi2jvmmC1PD4Mm-72">
          <mxGeometry x="-0.1585" y="-1" relative="1" as="geometry">
            <mxPoint as="offset" />
          </mxGeometry>
        </mxCell>
        <mxCell id="HxlN1PRi2jvmmC1PD4Mm-75" value="" style="edgeStyle=orthogonalEdgeStyle;rounded=0;orthogonalLoop=1;jettySize=auto;html=1;" edge="1" parent="WIyWlLk6GJQsqaUBKTNV-1" source="HxlN1PRi2jvmmC1PD4Mm-69" target="HxlN1PRi2jvmmC1PD4Mm-74">
          <mxGeometry relative="1" as="geometry" />
        </mxCell>
        <mxCell id="HxlN1PRi2jvmmC1PD4Mm-76" value="否" style="edgeLabel;html=1;align=center;verticalAlign=middle;resizable=0;points=[];" vertex="1" connectable="0" parent="HxlN1PRi2jvmmC1PD4Mm-75">
          <mxGeometry x="-0.4196" y="-3" relative="1" as="geometry">
            <mxPoint as="offset" />
          </mxGeometry>
        </mxCell>
        <mxCell id="HxlN1PRi2jvmmC1PD4Mm-69" value="用户选择交易呼入？" style="rhombus;whiteSpace=wrap;html=1;rounded=1;glass=0;strokeWidth=1;shadow=0;" vertex="1" parent="WIyWlLk6GJQsqaUBKTNV-1">
          <mxGeometry x="-730" y="440" width="80" height="80" as="geometry" />
        </mxCell>
        <mxCell id="HxlN1PRi2jvmmC1PD4Mm-80" value="" style="edgeStyle=orthogonalEdgeStyle;rounded=0;orthogonalLoop=1;jettySize=auto;html=1;" edge="1" parent="WIyWlLk6GJQsqaUBKTNV-1" source="HxlN1PRi2jvmmC1PD4Mm-71" target="HxlN1PRi2jvmmC1PD4Mm-78">
          <mxGeometry relative="1" as="geometry" />
        </mxCell>
        <mxCell id="HxlN1PRi2jvmmC1PD4Mm-71" value="&lt;span style=&quot;font-size:10.5pt;mso-bidi-font-size:12.0pt;&lt;br/&gt;font-family:宋体;mso-ascii-font-family:&amp;quot;Times New Roman&amp;quot;;mso-hansi-font-family:&lt;br/&gt;&amp;quot;Times New Roman&amp;quot;;mso-bidi-font-family:&amp;quot;Times New Roman&amp;quot;;mso-font-kerning:1.0pt;&lt;br/&gt;mso-ansi-language:EN-US;mso-fareast-language:ZH-CN;mso-bidi-language:AR-SA&quot;&gt;柜员与客户沟通确办理&lt;/span&gt;" style="whiteSpace=wrap;html=1;rounded=1;glass=0;strokeWidth=1;shadow=0;" vertex="1" parent="WIyWlLk6GJQsqaUBKTNV-1">
          <mxGeometry x="-750" y="610" width="120" height="60" as="geometry" />
        </mxCell>
        <mxCell id="HxlN1PRi2jvmmC1PD4Mm-79" value="" style="edgeStyle=orthogonalEdgeStyle;rounded=0;orthogonalLoop=1;jettySize=auto;html=1;" edge="1" parent="WIyWlLk6GJQsqaUBKTNV-1" source="HxlN1PRi2jvmmC1PD4Mm-74" target="HxlN1PRi2jvmmC1PD4Mm-78">
          <mxGeometry relative="1" as="geometry" />
        </mxCell>
        <mxCell id="HxlN1PRi2jvmmC1PD4Mm-74" value="&lt;span style=&quot;font-size:10.5pt;mso-bidi-font-size:12.0pt;&lt;br/&gt;font-family:宋体;mso-ascii-font-family:&amp;quot;Times New Roman&amp;quot;;mso-hansi-font-family:&lt;br/&gt;&amp;quot;Times New Roman&amp;quot;;mso-bidi-font-family:&amp;quot;Times New Roman&amp;quot;;mso-font-kerning:1.0pt;&lt;br/&gt;mso-ansi-language:EN-US;mso-fareast-language:ZH-CN;mso-bidi-language:AR-SA&quot;&gt;柜员点击要办理的交易菜单，进入具体交易办理界面&lt;/span&gt;" style="whiteSpace=wrap;html=1;rounded=1;glass=0;strokeWidth=1;shadow=0;" vertex="1" parent="WIyWlLk6GJQsqaUBKTNV-1">
          <mxGeometry x="-610" y="450" width="120" height="60" as="geometry" />
        </mxCell>
        <mxCell id="HxlN1PRi2jvmmC1PD4Mm-78" value="交易结束" style="whiteSpace=wrap;html=1;rounded=1;glass=0;strokeWidth=1;shadow=0;" vertex="1" parent="WIyWlLk6GJQsqaUBKTNV-1">
          <mxGeometry x="-610" y="610" width="120" height="60" as="geometry" />
        </mxCell>
        <mxCell id="HxlN1PRi2jvmmC1PD4Mm-81" value="&lt;span style=&quot;font-size:10.5pt;mso-bidi-font-size:12.0pt;&lt;br/&gt;font-family:宋体;mso-ascii-font-family:&amp;quot;Times New Roman&amp;quot;;mso-hansi-font-family:&lt;br/&gt;&amp;quot;Times New Roman&amp;quot;;mso-bidi-font-family:&amp;quot;Times New Roman&amp;quot;;mso-font-kerning:1.0pt;&lt;br/&gt;mso-ansi-language:EN-GB;mso-fareast-language:ZH-CN;mso-bidi-language:AR-SA&quot;&gt;结束服务&lt;/span&gt;" style="whiteSpace=wrap;html=1;rounded=1;glass=0;strokeWidth=1;shadow=0;" vertex="1" parent="WIyWlLk6GJQsqaUBKTNV-1">
          <mxGeometry x="-630" y="-350" width="120" height="60" as="geometry" />
        </mxCell>
      </root>
    </mxGraphModel>
  </diagram>
</mxfile>
